<?xml version="1.0" standalone="no"?>
<!DOCTYPE svg PUBLIC "-//W3C//DTD SVG 1.0//EN" "http://www.w3.org/TR/2001/REC-SVG-20010904/DTD/svg10.dtd">
<svg xmlns="http://www.w3.org/2000/svg" xmlns:xlink="http://www.w3.org/1999/xlink" id="body_1" width="164" height="123">

<g transform="matrix(1.5317558 0 0 1.5317558 20.499996 -0)">
	<g>
        <path d="M80.4 40.2C 80.4 51.300926 76.475235 60.776157 68.625694 68.625694C 60.776157 76.475235 51.300926 80.4 40.2 80.4C 29.099077 80.4 19.623846 76.475235 11.774307 68.625694C 3.9247692 60.776157 0 51.300926 0 40.2C 0 29.099077 3.9247692 19.623846 11.774307 11.774307C 19.623846 3.9247692 29.099077 0 40.2 0C 51.300926 0 60.776157 3.9247692 68.625694 11.774307C 76.475235 19.623846 80.4 29.099077 80.4 40.2C 80.4 40.667797 80.391846 41.135452 80.37552 41.60296" stroke="none" fill="#F6A09C" fill-rule="nonzero" />
		<g>
			<g>
				<g>
					<g>
						<g>
                            <path d="M67.7 56.2C 67.7 56.9 67.2 57.4 66.5 57.4L66.5 57.4L13.8 57.4C 13.1 57.4 12.6 56.9 12.6 56.2L12.6 56.2L12.6 17.4C 12.6 16.699999 13.1 16.199999 13.8 16.199999L13.8 16.199999L66.6 16.199999C 67.299995 16.199999 67.799995 16.699999 67.799995 17.4L67.799995 17.4L67.799995 56.2L67.7 56.2z" stroke="none" fill="#0C2C48" fill-rule="nonzero" />
                            <path d="M29.8 56.3L50.5 56.3L50.5 63.3L29.8 63.3z" stroke="none" fill="#BABABA" fill-rule="nonzero" />
						</g>
					</g>
                    <path d="M15.5 18.6L64.7 18.6L64.7 49.1L15.5 49.1z" stroke="none" fill="#A3B9C4" fill-rule="nonzero" />
                    <path d="M12.6 48.1L12.6 56.199997C 12.6 56.899998 13.1 57.399998 13.8 57.399998L13.8 57.399998L66.6 57.399998C 67.299995 57.399998 67.799995 56.899998 67.799995 56.199997L67.799995 56.199997L67.799995 48.1L12.6 48.1z" stroke="none" fill="#FFFFFF" fill-rule="nonzero" />
                    <path d="M55.7 68.1L55.7 65.9C 55.7 64.200005 54.4 62.9 52.7 62.9L52.7 62.9L27.7 62.9C 26 62.9 24.7 64.200005 24.7 65.9L24.7 65.9L24.7 68.1L55.7 68.1z" stroke="none" fill="#FFFFFF" fill-rule="nonzero" />
				</g>
                <path d="M41.7 52.5C 41.7 52.914215 41.553555 53.26777 41.260662 53.56066C 40.96777 53.853554 40.614216 54 40.2 54C 39.78579 54 39.432236 53.853554 39.13934 53.56066C 38.846447 53.26777 38.7 52.914215 38.7 52.5C 38.7 52.08579 38.846447 51.732235 39.13934 51.43934C 39.432236 51.146446 39.78579 51 40.2 51C 40.614216 51 40.96777 51.146446 41.260662 51.43934C 41.553555 51.732235 41.7 52.08579 41.7 52.5C 41.7 52.517456 41.699696 52.534904 41.699085 52.55235" stroke="none" fill="#0C2C48" fill-rule="nonzero" />
			</g>
		</g>
		<g>
            <path d="M32.8 38.2L23.5 34L23.5 32.4L32.8 27.900002L32.8 30.300001L26.199999 33.100002L26.199999 33.2L32.8 35.9L32.8 38.2z" stroke="none" fill="#FFFFFF" fill-rule="nonzero" />
            <path d="M44.6 24.6L37.6 41.300003L34.8 41.300003L41.7 24.600002L44.6 24.600002L44.6 24.6z" stroke="none" fill="#50646F" fill-rule="nonzero" />
            <path d="M56.2 33.8L46.9 38L46.9 35.6L53.600002 32.899998L46.9 30.099998L46.9 27.699999L56.2 32.1L56.2 33.8z" stroke="none" fill="#ED6B5A" fill-rule="nonzero" />
		</g>
	</g>
</g>
</svg>